<svg width="22" height="19" viewBox="0 0 22 19" fill="none" xmlns="http://www.w3.org/2000/svg">
<path d="M22 2.9611C21.1819 3.31997 20.3101 3.55785 19.4013 3.67335C20.3363 3.1151 21.0499 2.23785 21.3854 1.18047C20.5136 1.70022 19.5511 2.06735 18.5254 2.27222C17.6976 1.39085 16.5179 0.844971 15.2309 0.844971C12.7339 0.844971 10.7236 2.87172 10.7236 5.35635C10.7236 5.71385 10.7539 6.0576 10.8281 6.38485C7.0785 6.20197 3.76062 4.40485 1.53175 1.66722C1.14262 2.34235 0.914375 3.1151 0.914375 3.94697C0.914375 5.50897 1.71875 6.8936 2.91775 7.69522C2.19312 7.68147 1.48225 7.4711 0.88 7.13972C0.88 7.15347 0.88 7.17135 0.88 7.18922C0.88 9.38097 2.44338 11.2015 4.4935 11.6208C4.12638 11.7212 3.72625 11.7693 3.311 11.7693C3.02225 11.7693 2.73075 11.7528 2.45712 11.6923C3.0415 13.4785 4.69975 14.7916 6.6715 14.8342C5.137 16.0346 3.18863 16.7578 1.07938 16.7578C0.7095 16.7578 0.35475 16.7413 0 16.696C1.99787 17.9843 4.36563 18.72 6.919 18.72C15.2185 18.72 19.756 11.845 19.756 5.88572C19.756 5.68635 19.7491 5.49385 19.7395 5.30272C20.6346 4.66747 21.3867 3.8741 22 2.9611Z" fill="black"/>
</svg>
